<?xml version="1.0" standalone="no"?>
<!DOCTYPE svg PUBLIC "-//W3C//DTD SVG 20010904//EN"
 "http://www.w3.org/TR/2001/REC-SVG-20010904/DTD/svg10.dtd">
<svg version="1.0" xmlns="http://www.w3.org/2000/svg"
 width="2668.000000pt" height="2668.000000pt" viewBox="0 0 2668.000000 2668.000000"
 preserveAspectRatio="xMidYMid meet">
<metadata>
Created by potrace 1.16, written by Peter Selinger 2001-2019
</metadata>
<g transform="translate(0.000000,2668.000000) scale(0.100000,-0.100000)"
fill="#000000" stroke="none">
<path d="M9675 18935 c-104 -7 -234 -18 -287 -24 -54 -6 -126 -11 -160 -11
-63 0 -237 -21 -337 -40 -29 -5 -75 -10 -102 -10 -26 0 -69 -4 -96 -10 -26 -5
-86 -17 -132 -26 -47 -9 -99 -17 -117 -18 -18 0 -36 -4 -40 -9 -4 -4 -23 -7
-43 -7 -20 0 -88 -11 -151 -24 -103 -22 -157 -33 -335 -68 -66 -13 -105 -22
-194 -46 -40 -11 -80 -18 -87 -15 -8 3 -14 0 -14 -6 0 -6 -12 -11 -28 -11 -15
0 -63 -11 -106 -25 -43 -14 -89 -25 -102 -25 -12 0 -59 -13 -104 -29 -45 -16
-90 -26 -101 -24 -10 3 -19 0 -19 -6 0 -6 -11 -11 -24 -11 -13 0 -45 -9 -71
-20 -26 -11 -65 -23 -88 -27 -23 -3 -71 -18 -107 -33 -36 -15 -71 -25 -78 -22
-8 2 -24 0 -35 -6 -81 -38 -118 -51 -132 -46 -8 3 -15 1 -15 -5 0 -6 -8 -11
-18 -11 -10 0 -37 -9 -60 -20 -23 -11 -57 -23 -75 -27 -17 -3 -55 -17 -84 -30
-28 -12 -61 -23 -71 -23 -11 0 -45 -13 -75 -29 -30 -16 -69 -32 -86 -36 -17
-3 -52 -17 -78 -31 -27 -13 -56 -24 -65 -24 -16 0 -79 -31 -104 -51 -6 -5 -14
-6 -17 -2 -7 7 -45 -10 -89 -39 -15 -10 -30 -18 -35 -16 -11 2 -93 -35 -93
-44 0 -3 -14 -10 -31 -13 -18 -4 -52 -20 -77 -36 -25 -16 -49 -26 -53 -23 -5
3 -18 -4 -30 -15 -12 -11 -38 -27 -58 -36 -20 -9 -47 -23 -61 -31 -14 -8 -43
-24 -66 -35 -23 -11 -51 -29 -62 -39 -12 -11 -27 -20 -34 -20 -7 0 -33 -14
-58 -30 -25 -16 -49 -30 -54 -30 -6 0 -19 -9 -30 -19 -12 -11 -40 -30 -62 -43
-58 -33 -158 -97 -218 -140 -28 -20 -64 -46 -81 -58 -86 -59 -142 -101 -161
-121 -14 -13 -27 -19 -35 -14 -8 5 -11 5 -7 0 4 -4 -23 -32 -60 -62 -158 -129
-409 -369 -509 -488 -23 -28 -51 -60 -61 -72 -10 -13 -23 -19 -27 -15 -5 4 -5
1 -1 -6 4 -7 -2 -24 -14 -40 -59 -74 -100 -135 -100 -148 0 -8 -4 -14 -9 -14
-5 0 -17 -17 -26 -37 -10 -21 -31 -57 -47 -80 -15 -23 -28 -46 -27 -50 3 -11
-11 -43 -31 -73 -10 -14 -20 -42 -24 -63 -4 -21 -16 -54 -27 -73 -10 -19 -19
-45 -19 -59 0 -13 -4 -27 -10 -30 -5 -3 -7 -19 -4 -34 4 -16 1 -32 -5 -35 -6
-4 -11 -22 -11 -40 0 -17 -5 -37 -11 -43 -14 -14 -15 -348 -1 -366 10 -13 22
-64 25 -112 3 -41 12 -67 51 -157 9 -20 16 -42 16 -50 0 -7 11 -31 25 -53 13
-22 25 -46 25 -53 0 -7 16 -35 35 -63 19 -28 35 -57 35 -65 0 -8 3 -14 8 -14
4 0 23 -25 41 -55 19 -30 38 -55 43 -55 4 0 14 -13 22 -28 8 -16 64 -78 124
-138 123 -122 135 -133 247 -218 44 -33 82 -64 83 -68 2 -5 9 -8 16 -8 7 0 26
-11 42 -25 16 -14 35 -25 42 -25 6 0 12 -3 12 -8 0 -4 16 -16 35 -26 19 -11
35 -23 35 -28 0 -5 6 -8 13 -6 6 1 30 -9 52 -23 22 -15 51 -30 64 -34 14 -4
34 -16 45 -26 11 -11 28 -19 38 -19 10 0 18 -5 18 -12 0 -6 3 -8 7 -5 6 7 73
-30 84 -46 4 -6 14 -7 23 -4 10 4 19 1 22 -8 4 -8 10 -12 15 -9 5 3 22 -4 38
-15 16 -12 39 -21 50 -21 12 0 21 -5 21 -12 0 -6 3 -9 6 -5 3 3 21 -3 40 -14
19 -10 41 -19 49 -19 8 0 15 -4 15 -10 0 -5 12 -10 26 -10 14 0 23 -4 20 -9
-3 -5 2 -8 12 -7 9 0 16 -3 15 -9 -1 -5 8 -11 20 -12 48 -4 87 -16 87 -26 0
-6 3 -8 6 -4 4 3 24 -3 45 -13 21 -11 50 -20 64 -20 14 0 33 -8 43 -17 10 -10
27 -19 37 -21 56 -9 75 -15 75 -23 0 -5 9 -9 21 -9 11 0 45 -11 75 -25 30 -14
63 -25 74 -25 11 0 43 -11 72 -25 28 -14 61 -25 72 -25 12 0 45 -11 74 -25 30
-14 62 -25 72 -25 11 0 22 -4 25 -10 3 -5 14 -10 24 -10 10 0 44 -11 75 -25
31 -14 66 -25 77 -25 11 0 42 -11 69 -25 27 -14 58 -25 68 -25 10 0 40 -11 68
-24 27 -13 67 -29 89 -36 22 -7 64 -24 93 -37 29 -12 58 -23 65 -23 7 0 37
-11 65 -25 29 -14 56 -25 60 -25 5 0 26 -8 48 -19 21 -10 57 -26 79 -36 22 -9
61 -28 86 -41 26 -13 52 -24 58 -24 7 0 29 -11 49 -25 20 -14 44 -25 53 -25
10 0 19 -3 21 -7 4 -9 85 -63 94 -63 13 0 63 -48 56 -54 -3 -4 2 -4 12 0 10 4
21 3 25 -2 3 -5 35 -33 71 -63 88 -74 187 -180 199 -215 2 -6 7 -13 10 -16 21
-16 51 -72 45 -82 -4 -7 -4 -10 1 -6 10 9 57 -81 49 -93 -3 -5 0 -9 5 -9 6 0
11 -13 11 -29 0 -17 5 -33 10 -36 6 -3 10 -17 10 -30 0 -13 5 -27 11 -31 6 -3
9 -19 5 -35 -3 -16 -1 -29 6 -31 15 -5 15 -291 0 -296 -6 -2 -8 -17 -5 -36 3
-20 1 -36 -6 -40 -6 -4 -11 -18 -11 -31 0 -13 -4 -27 -10 -30 -5 -3 -10 -24
-10 -46 0 -21 -5 -39 -11 -39 -5 0 -7 -5 -4 -10 4 -6 -3 -31 -14 -55 -12 -25
-21 -49 -21 -55 0 -5 -5 -10 -11 -10 -7 0 -9 -9 -6 -22 4 -13 -2 -32 -14 -49
-10 -15 -19 -32 -19 -38 0 -6 -4 -11 -10 -11 -5 0 -10 -11 -10 -24 0 -13 -7
-29 -15 -36 -8 -7 -15 -19 -15 -26 0 -8 -4 -14 -9 -14 -5 0 -12 -13 -16 -29
-3 -16 -13 -35 -21 -42 -9 -7 -26 -34 -39 -59 -13 -25 -31 -52 -39 -59 -9 -8
-16 -17 -16 -21 0 -14 -82 -131 -100 -143 -10 -6 -16 -16 -13 -23 2 -6 -10
-22 -26 -34 -17 -12 -31 -27 -31 -35 0 -7 -11 -22 -25 -33 -14 -11 -25 -23
-25 -26 0 -14 -158 -183 -315 -337 -108 -106 -278 -255 -379 -334 -22 -16 -56
-43 -77 -60 -62 -49 -170 -129 -190 -141 -11 -6 -30 -21 -43 -33 -12 -11 -27
-21 -32 -21 -5 0 -21 -11 -36 -25 -15 -14 -30 -25 -34 -25 -3 0 -28 -16 -54
-35 -26 -19 -52 -35 -56 -35 -5 0 -21 -11 -36 -25 -15 -14 -34 -25 -42 -25 -8
0 -18 -5 -21 -10 -4 -6 -11 -7 -17 -4 -6 4 -8 3 -5 -3 6 -9 -51 -50 -64 -46
-3 1 -20 -11 -38 -28 -18 -16 -40 -29 -50 -29 -10 0 -24 -7 -31 -15 -7 -8 -19
-15 -26 -15 -8 0 -14 -4 -14 -10 0 -5 -7 -10 -17 -10 -9 0 -31 -11 -49 -25
-18 -14 -40 -25 -48 -25 -9 0 -16 -4 -16 -8 0 -4 -12 -13 -27 -19 -16 -6 -39
-18 -53 -27 -23 -13 -52 -25 -65 -26 -3 0 -14 -9 -25 -20 -11 -11 -28 -20 -39
-20 -10 0 -30 -9 -45 -21 -14 -11 -30 -17 -36 -14 -5 3 -10 1 -10 -4 0 -6 -6
-11 -12 -11 -13 0 -119 -50 -128 -61 -5 -6 -54 -19 -82 -22 -9 -1 -14 -5 -12
-9 3 -4 -2 -8 -10 -8 -9 0 -16 -4 -16 -10 0 -5 -11 -10 -25 -10 -13 0 -44 -11
-69 -25 -25 -14 -52 -25 -60 -25 -9 0 -16 -4 -16 -10 0 -5 -11 -10 -23 -10
-22 0 -62 -15 -109 -41 -10 -5 -27 -9 -38 -9 -11 0 -28 -4 -38 -9 -52 -26 -96
-41 -122 -41 -16 0 -32 -4 -35 -10 -3 -5 -17 -10 -30 -10 -13 0 -27 -4 -30
-10 -3 -5 -28 -12 -55 -16 -28 -4 -50 -10 -50 -15 0 -5 -16 -9 -35 -9 -19 0
-43 -4 -53 -9 -37 -18 -100 -34 -167 -42 -38 -5 -90 -13 -115 -20 -25 -6 -61
-12 -80 -12 -19 -1 -38 -6 -42 -11 -3 -5 -36 -9 -73 -8 -36 1 -75 -3 -86 -8
-12 -7 -134 -10 -342 -10 -369 2 -383 2 -393 13 -4 4 -40 7 -81 7 -40 0 -73 4
-73 8 0 5 -15 9 -32 9 -18 0 -53 6 -78 12 -25 7 -70 16 -100 21 -30 4 -77 17
-103 29 -27 12 -60 21 -73 21 -13 0 -24 5 -24 12 0 6 -3 9 -6 5 -4 -3 -32 7
-63 22 -31 16 -68 34 -83 41 -15 7 -25 17 -22 22 3 5 2 8 -3 7 -23 -6 -70 28
-142 101 -64 65 -81 88 -86 120 -4 22 -11 38 -16 34 -5 -3 -9 4 -9 15 0 11 -5
23 -10 26 -13 8 -13 285 0 285 6 0 10 14 10 31 0 19 4 28 11 24 6 -4 9 -1 8 6
-2 8 1 30 6 49 5 19 9 40 10 45 5 27 18 55 26 55 5 0 9 6 9 13 0 15 21 65 45
107 8 14 24 44 36 68 12 23 25 42 29 42 4 0 11 10 14 23 3 12 15 33 26 47 11
14 38 50 59 80 53 73 79 106 118 147 18 19 35 43 38 53 4 11 10 20 15 20 12 0
159 158 160 172 0 4 9 9 19 13 11 3 23 15 26 26 4 10 11 19 17 19 6 0 47 36
92 79 44 44 101 97 126 118 25 21 56 48 70 61 43 40 158 132 165 132 3 0 17
11 30 25 21 20 25 34 25 85 0 33 -4 60 -10 60 -5 0 -10 7 -10 15 0 8 -3 15 -8
15 -4 0 -16 16 -26 35 -11 19 -23 35 -28 35 -5 0 -6 5 -3 10 4 6 3 10 -2 8 -4
-1 -28 17 -52 40 -24 23 -57 47 -72 54 -16 7 -29 16 -29 19 0 4 -22 6 -50 6
-27 -1 -50 -5 -50 -9 0 -5 -5 -8 -11 -8 -6 0 -22 -13 -35 -30 -14 -16 -29 -29
-33 -27 -5 1 -22 -11 -39 -28 -16 -16 -39 -37 -50 -45 -52 -39 -110 -88 -144
-122 -21 -21 -40 -38 -43 -38 -3 0 -41 -36 -86 -80 -44 -44 -85 -77 -91 -74
-6 4 -8 2 -5 -3 4 -6 -25 -43 -63 -82 -95 -95 -308 -346 -319 -374 -7 -19 -44
-56 -52 -52 -4 3 -5 -3 -3 -12 3 -10 -7 -31 -21 -47 -14 -16 -25 -33 -25 -38
0 -5 -13 -28 -28 -51 -16 -23 -41 -68 -57 -99 -16 -31 -32 -55 -36 -52 -4 2
-5 -4 -2 -14 2 -10 -4 -34 -15 -53 -10 -19 -27 -61 -37 -94 -10 -33 -26 -87
-36 -119 -11 -33 -19 -75 -19 -95 0 -22 -3 -31 -8 -24 -8 13 -6 -203 2 -228 2
-8 7 -36 10 -64 4 -27 12 -70 20 -95 7 -25 19 -65 26 -90 13 -45 48 -129 77
-185 81 -156 203 -302 354 -424 35 -28 74 -60 86 -71 12 -11 26 -20 31 -20 5
0 26 -13 47 -30 21 -16 42 -30 47 -30 5 0 28 -13 51 -29 23 -15 53 -32 67 -36
14 -4 37 -16 52 -26 14 -11 31 -19 37 -19 6 0 11 -5 11 -11 0 -5 5 -7 10 -4
12 7 70 -16 70 -27 0 -5 9 -8 20 -8 11 0 20 -5 20 -11 0 -6 10 -9 23 -8 12 2
40 -5 62 -15 70 -32 79 -35 127 -41 26 -3 50 -10 53 -16 4 -5 17 -9 30 -9 13
0 27 -4 30 -10 3 -5 24 -10 46 -10 21 0 39 -4 39 -9 0 -5 19 -9 43 -9 47 0
102 -9 132 -22 55 -23 234 -32 555 -27 314 5 370 9 510 37 30 7 80 13 110 14
30 1 69 6 85 10 72 17 111 29 131 38 12 6 31 7 43 3 12 -4 21 -2 21 4 0 6 18
11 40 11 22 0 48 4 58 9 53 27 72 33 86 28 9 -4 16 -2 16 3 0 6 18 10 40 10
22 0 40 5 40 10 0 6 7 10 15 10 8 0 24 5 35 10 11 6 28 14 38 19 10 5 30 7 45
4 16 -3 27 -1 27 6 0 6 11 11 25 11 14 0 25 3 25 8 0 12 56 33 74 26 9 -3 16
-1 16 5 0 6 11 11 25 11 14 0 25 5 25 10 0 6 9 10 19 10 11 0 23 5 26 11 4 6
14 8 22 5 8 -3 11 -1 8 4 -4 6 7 10 24 10 17 0 31 3 31 8 0 10 82 46 99 43 8
-1 17 1 20 6 11 15 110 63 130 63 11 0 21 3 23 8 6 13 65 42 87 42 12 0 21 5
21 10 0 6 7 10 15 10 8 0 15 4 15 8 0 9 64 42 81 42 5 0 19 9 30 19 12 11 32
22 47 26 14 3 45 20 69 37 25 16 47 28 50 25 2 -3 13 2 24 11 10 9 38 28 62
42 84 49 110 65 141 87 17 12 45 28 61 36 17 8 36 21 44 31 9 11 21 14 35 10
12 -4 18 -3 14 1 -9 10 6 25 74 67 31 20 59 34 63 30 3 -3 3 2 -1 12 -6 15 -4
17 16 11 13 -4 20 -3 17 2 -5 9 16 28 69 63 12 8 50 37 84 63 33 26 66 45 72
41 6 -4 8 -3 5 3 -4 6 43 53 106 106 61 52 135 115 162 140 28 26 56 45 63 42
7 -3 11 -1 8 4 -8 12 19 33 29 23 5 -4 5 -2 1 5 -9 16 106 128 119 115 3 -4 3
2 -1 13 -6 15 -4 17 10 12 10 -4 15 -3 11 3 -3 6 -2 10 4 10 5 0 12 8 15 18 3
9 19 26 36 37 16 11 30 24 30 28 0 5 6 14 13 22 6 7 32 37 57 66 76 89 107
119 114 112 4 -4 4 0 1 8 -4 11 5 25 24 42 16 13 27 28 23 32 -4 3 8 19 26 34
17 16 32 31 32 34 0 8 69 110 95 139 13 14 21 29 18 32 -3 3 8 20 26 38 17 17
31 38 31 45 0 8 4 11 10 8 5 -3 7 0 5 8 -3 7 3 22 15 32 11 10 20 24 20 32 0
16 49 96 61 101 5 2 9 14 9 27 0 12 7 28 15 35 8 7 15 19 15 26 0 8 5 14 10
14 6 0 10 11 10 25 0 14 5 25 10 25 6 0 10 5 10 11 0 5 10 31 22 57 22 46 24
53 27 80 0 7 6 10 13 6 7 -4 8 -3 4 4 -4 6 2 30 14 54 11 23 20 54 20 70 0 15
4 28 9 28 5 0 7 8 4 19 -3 10 0 22 6 25 6 4 11 18 11 31 0 13 5 27 10 30 6 3
10 26 10 51 0 24 4 44 9 44 5 0 9 20 8 45 -1 25 3 49 8 53 19 14 22 477 3 465
-9 -5 -12 18 -9 60 1 15 -3 27 -8 27 -6 0 -11 17 -11 38 0 21 -9 58 -21 81
-11 24 -23 60 -26 80 -4 20 -17 55 -30 78 -12 23 -23 49 -23 58 0 9 -9 26 -20
38 -12 12 -23 32 -26 44 -4 13 -10 23 -15 23 -5 0 -9 5 -9 12 0 6 -11 26 -25
44 -14 18 -25 37 -25 43 0 5 -14 23 -31 40 -17 18 -27 36 -23 42 4 8 3 9 -4 5
-7 -4 -12 -3 -12 1 0 17 -233 263 -248 263 -4 0 -27 19 -52 43 -50 46 -155
127 -166 127 -4 0 -19 13 -34 28 -14 16 -31 27 -36 25 -6 -2 -19 5 -30 15 -20
19 -77 54 -167 101 -26 13 -55 32 -65 41 -10 9 -23 15 -29 13 -7 -3 -32 9 -55
25 -24 16 -56 32 -72 36 -17 4 -42 16 -57 27 -15 10 -33 19 -41 19 -10 0 -10
3 2 11 12 8 10 10 -10 5 -25 -6 -80 12 -80 26 0 5 -7 8 -15 8 -8 0 -15 5 -15
10 0 6 -12 10 -27 10 -16 0 -50 11 -77 25 -27 14 -56 25 -63 25 -8 0 -12 4 -9
9 3 4 -6 6 -19 3 -15 -2 -25 0 -25 7 0 6 -9 11 -20 11 -11 0 -20 5 -20 10 0 6
-9 10 -19 10 -11 0 -23 5 -26 10 -3 6 -17 7 -31 4 -14 -4 -24 -2 -24 5 0 6 -9
11 -20 11 -11 0 -20 5 -20 10 0 6 -9 10 -19 10 -11 0 -22 4 -25 9 -3 4 -22 11
-42 14 -42 7 -94 29 -94 39 0 5 -13 8 -30 8 -16 0 -30 5 -30 11 0 6 -7 9 -15
5 -8 -3 -31 3 -50 14 -20 11 -42 20 -50 20 -8 0 -15 5 -15 11 0 5 -12 9 -27 8
-33 -2 -73 10 -73 22 0 5 -9 9 -20 9 -11 0 -20 5 -20 10 0 6 -16 10 -35 10
-19 0 -35 5 -35 11 0 6 -9 8 -20 4 -11 -4 -20 -2 -20 4 0 6 -9 11 -20 11 -11
0 -20 5 -20 10 0 6 -13 10 -30 10 -16 0 -30 5 -30 11 0 6 -7 8 -16 5 -18 -7
-74 14 -74 26 0 5 -9 8 -20 8 -11 0 -20 5 -20 11 0 7 -11 9 -27 6 -15 -3 -34
-1 -42 3 -9 5 -31 15 -48 22 -18 7 -33 16 -33 20 0 5 -12 8 -27 8 -16 0 -41 7
-57 15 -15 8 -35 15 -42 15 -8 0 -14 5 -14 10 0 6 -12 10 -26 10 -17 0 -23 4
-18 12 5 8 2 9 -11 4 -18 -7 -102 27 -116 47 -3 5 -12 7 -20 6 -14 -3 -89 29
-99 42 -3 3 -22 9 -42 13 -21 4 -38 10 -38 15 0 4 -16 13 -35 21 -19 7 -31 18
-28 23 4 6 -1 8 -11 4 -17 -7 -76 26 -84 45 -2 4 -13 8 -24 8 -22 0 -78 30
-78 42 0 4 -6 8 -14 8 -18 0 -76 32 -76 43 0 4 -7 7 -16 7 -9 0 -12 5 -8 12 5
7 2 9 -8 6 -8 -4 -27 6 -44 21 -16 15 -34 30 -40 32 -17 6 -74 50 -112 87 -19
17 -37 32 -40 32 -4 0 -24 20 -44 43 -20 23 -50 58 -67 77 -17 19 -31 39 -31
44 0 5 -11 24 -25 42 -14 18 -25 42 -25 53 0 12 -3 21 -7 21 -12 0 -33 52 -26
63 3 6 1 7 -5 3 -8 -5 -12 3 -12 23 0 16 -4 33 -10 36 -5 3 -10 21 -10 40 0
19 -4 36 -9 39 -30 19 -30 323 0 342 5 3 9 20 9 39 0 19 5 37 11 41 6 3 9 17
6 30 -3 16 1 28 12 34 9 5 15 12 14 17 -4 15 9 53 18 53 5 0 9 9 9 21 0 19 26
76 41 89 3 3 13 21 23 40 29 58 61 108 84 133 12 13 22 27 22 31 0 29 373 419
412 432 10 3 18 9 18 14 0 5 44 44 98 87 53 43 106 86 116 95 11 10 23 18 27
18 4 0 14 6 21 13 7 6 31 25 53 42 22 16 49 37 59 47 11 10 26 18 33 18 7 0
13 5 13 11 0 6 7 8 17 5 10 -4 14 -4 11 0 -7 7 15 34 28 34 4 0 22 11 40 25
18 14 36 25 40 25 4 0 23 12 43 27 20 16 39 27 44 25 4 -1 7 3 7 8 0 6 6 10
13 10 7 0 24 11 39 25 15 14 33 25 39 25 7 0 27 11 45 25 18 14 38 25 44 25 6
0 21 9 33 20 12 11 27 18 35 15 7 -2 10 0 7 5 -3 6 1 10 9 10 9 0 16 5 16 10
0 6 7 10 16 10 8 0 30 11 48 25 18 14 40 25 49 25 10 0 17 5 17 10 0 6 6 10
14 10 7 0 19 7 26 15 7 8 23 15 35 15 13 0 25 4 27 9 4 11 85 61 98 61 6 0 28
11 50 25 22 14 49 25 60 25 11 0 20 5 20 10 0 6 5 10 11 10 6 0 24 9 41 21 16
12 31 19 34 16 3 -3 34 10 69 29 34 19 72 34 83 34 11 0 22 3 24 8 6 14 67 42
92 42 14 0 26 3 26 8 0 12 59 34 71 26 8 -4 9 -3 5 4 -7 12 5 16 33 13 7 -2
10 2 6 8 -3 6 2 11 13 11 10 0 41 11 68 25 27 14 61 25 77 25 15 0 27 3 27 8
0 11 77 42 105 42 14 0 25 5 25 10 0 6 6 10 13 10 7 0 31 9 52 19 22 10 45 17
52 14 7 -3 13 0 13 6 0 6 11 11 25 11 13 0 41 9 61 21 20 11 43 18 50 15 8 -3
14 -1 14 4 0 6 16 10 35 10 19 0 35 5 35 10 0 6 6 10 14 10 7 0 27 7 42 15 16
8 44 15 62 15 17 0 32 5 32 10 0 6 9 10 20 10 11 0 29 5 40 10 11 6 29 15 40
20 12 6 25 8 30 5 6 -4 10 -1 10 4 0 6 18 11 40 11 22 0 40 5 40 10 0 6 11 10
24 10 14 0 28 5 31 11 4 6 13 8 20 5 8 -3 15 0 18 7 2 6 22 10 51 8 31 -1 46
2 41 8 -3 7 3 11 15 11 11 0 30 5 43 12 45 23 53 25 85 20 20 -2 32 0 32 7 0
6 14 11 30 11 17 0 30 5 30 10 0 6 11 10 24 10 14 0 28 5 31 11 4 6 19 7 37 4
21 -5 28 -4 24 4 -5 7 9 11 43 11 28 0 51 5 51 10 0 6 11 10 24 10 14 0 28 5
31 10 3 6 17 10 30 10 13 0 26 4 29 9 3 4 29 6 57 3 37 -3 50 -2 45 7 -5 7 4
11 28 11 20 0 36 5 36 10 0 6 13 10 29 10 17 0 32 4 35 9 3 5 24 7 46 4 26 -4
40 -2 40 6 0 6 18 11 45 11 25 0 45 5 45 10 0 6 15 10 34 10 19 0 38 5 42 11
3 6 19 9 35 5 16 -3 29 -1 29 4 0 6 29 10 65 10 37 0 65 4 65 10 0 6 18 10 39
10 22 0 43 5 46 10 3 6 21 10 40 10 19 0 36 4 40 9 3 6 35 7 74 4 46 -4 70 -2
75 6 4 6 29 11 57 11 27 0 49 5 49 10 0 6 20 10 44 10 25 0 47 4 51 10 3 5 51
8 113 5 63 -2 97 0 82 5 -17 5 3 8 63 9 51 1 87 5 87 11 0 6 31 10 73 10 45 0
78 5 85 13 10 9 142 12 592 12 450 0 582 -3 591 -12 8 -8 38 -13 71 -13 32 0
58 -4 58 -10 0 -6 30 -10 68 -11 48 0 61 -3 47 -9 -13 -6 10 -8 62 -5 48 3 85
1 88 -5 3 -6 19 -10 35 -10 16 0 32 -4 35 -10 3 -5 22 -10 41 -10 19 0 34 -5
34 -11 0 -8 15 -10 45 -7 25 3 48 2 51 -3 3 -5 16 -9 29 -9 13 0 27 -4 30 -10
3 -5 17 -10 31 -10 14 0 22 -4 19 -10 -4 -6 12 -10 42 -10 35 0 44 -3 33 -10
-11 -7 -6 -8 16 -4 19 4 34 1 38 -5 4 -6 16 -11 27 -11 10 0 19 -4 19 -10 0
-5 11 -10 25 -10 14 0 25 -5 25 -11 0 -6 7 -8 16 -5 18 7 74 -14 74 -26 0 -5
9 -8 21 -8 12 0 17 -4 13 -11 -4 -7 3 -10 17 -8 27 2 53 -7 89 -31 14 -10 40
-21 58 -25 17 -3 32 -11 32 -16 0 -5 7 -9 15 -9 8 0 15 -4 15 -10 0 -5 9 -10
21 -10 13 0 18 -4 13 -12 -5 -7 -2 -9 9 -5 9 3 27 -6 46 -24 18 -16 36 -27 40
-24 5 3 25 -11 45 -30 20 -19 40 -35 44 -35 14 0 61 -47 54 -55 -4 -4 0 -6 8
-3 29 9 220 -207 220 -249 0 -8 9 -23 20 -35 11 -12 20 -28 20 -35 0 -7 5 -13
11 -13 6 0 8 -8 4 -19 -3 -10 0 -31 6 -47 15 -41 16 -229 0 -248 -7 -8 -10
-24 -7 -34 5 -14 -3 -29 -27 -53 -39 -39 -48 -78 -35 -151 10 -56 19 -68 110
-161 73 -73 116 -97 176 -97 31 0 45 7 74 38 19 20 46 54 60 74 14 21 27 36
30 33 3 -3 4 10 2 30 -1 19 2 35 7 35 5 0 9 14 9 30 0 17 3 30 8 30 4 0 7 52
7 115 0 63 -3 115 -7 115 -5 0 -8 18 -8 39 0 22 -5 43 -10 46 -6 4 -8 15 -5
25 3 11 -3 39 -15 64 -11 25 -20 50 -20 55 0 6 -4 11 -10 11 -5 0 -10 11 -10
25 0 14 -11 43 -25 65 -14 22 -25 42 -25 45 0 3 -16 31 -35 61 -19 30 -35 56
-35 59 0 10 -97 142 -132 178 -21 22 -38 43 -38 46 0 6 -126 127 -187 179 -18
15 -40 34 -50 43 -10 8 -36 29 -58 45 -22 16 -46 35 -53 42 -7 6 -19 12 -25
12 -7 0 -26 12 -42 28 -17 15 -46 36 -65 46 -19 11 -37 22 -40 25 -13 15 -322
169 -385 192 -11 4 -49 18 -85 32 -103 39 -162 59 -205 70 -22 5 -72 20 -111
33 -39 13 -82 24 -97 24 -14 0 -28 4 -31 9 -3 5 -16 9 -28 9 -13 0 -58 9 -100
21 -43 12 -110 26 -150 31 -40 5 -122 18 -182 29 -60 12 -134 21 -163 21 -30
0 -111 7 -181 15 -216 24 -229 25 -547 29 -199 3 -378 0 -500 -9z"/>
<path d="M15765 17641 c-33 -4 -84 -17 -113 -29 -29 -12 -60 -22 -68 -22 -8 0
-35 -14 -60 -31 -25 -17 -50 -29 -56 -27 -7 3 -20 -3 -30 -11 -10 -9 -38 -27
-62 -41 -64 -36 -177 -114 -213 -147 -17 -15 -50 -44 -73 -63 -98 -84 -307
-301 -333 -347 -5 -8 -22 -27 -38 -42 -16 -16 -29 -32 -29 -37 0 -5 -13 -23
-28 -40 -15 -18 -34 -41 -42 -53 -8 -12 -20 -19 -27 -17 -7 3 -10 -1 -7 -8 3
-7 -11 -30 -30 -51 -20 -21 -36 -42 -36 -47 0 -6 -11 -19 -25 -30 -14 -11 -25
-25 -25 -32 0 -7 -16 -29 -35 -50 -19 -21 -35 -44 -35 -52 0 -7 -6 -17 -13
-21 -7 -4 -38 -44 -68 -88 -30 -44 -62 -87 -71 -96 -10 -9 -14 -19 -10 -23 3
-4 -3 -15 -14 -24 -12 -9 -42 -48 -68 -87 -25 -38 -58 -83 -71 -100 -14 -16
-25 -34 -25 -40 0 -7 -11 -22 -25 -35 -14 -13 -25 -29 -25 -37 0 -7 -8 -21
-17 -31 -22 -23 -103 -139 -103 -147 0 -4 -16 -25 -35 -48 -19 -22 -35 -45
-35 -50 0 -4 -6 -15 -12 -22 -28 -31 -38 -44 -38 -51 0 -4 -11 -22 -25 -40
-14 -18 -25 -36 -26 -41 0 -4 -22 -37 -49 -73 -27 -36 -70 -100 -96 -142 -26
-43 -50 -78 -53 -78 -4 0 -15 -17 -26 -37 -20 -38 -29 -52 -52 -78 -7 -7 -13
-19 -13 -25 0 -6 -11 -23 -25 -38 -14 -15 -25 -32 -25 -38 0 -5 -8 -19 -18
-30 -10 -10 -27 -35 -38 -54 -10 -19 -29 -48 -41 -63 -13 -16 -23 -33 -23 -38
0 -5 -16 -29 -35 -55 -19 -25 -35 -50 -35 -55 0 -5 -9 -20 -21 -32 -11 -12
-27 -35 -35 -52 -15 -33 -115 -189 -139 -218 -8 -9 -15 -21 -15 -25 0 -17 -57
-91 -65 -85 -4 5 -5 2 -1 -4 4 -7 -9 -36 -29 -65 -19 -29 -35 -58 -35 -64 0
-6 -9 -19 -20 -29 -11 -10 -22 -26 -25 -36 -6 -18 -51 -90 -92 -149 -10 -14
-26 -42 -36 -62 -11 -21 -23 -38 -28 -38 -5 0 -9 -7 -9 -16 0 -8 -5 -12 -11
-8 -7 4 -9 0 -5 -13 4 -13 0 -26 -12 -37 -11 -9 -28 -36 -38 -59 -10 -23 -25
-49 -33 -57 -7 -8 -20 -29 -27 -47 -8 -17 -25 -43 -39 -58 -15 -14 -23 -30
-20 -35 3 -5 -3 -19 -14 -31 -11 -12 -29 -40 -41 -63 -21 -42 -51 -96 -85
-153 -10 -18 -23 -29 -28 -26 -5 3 -7 0 -5 -8 6 -15 -31 -89 -44 -89 -4 0 -8
-9 -8 -21 0 -11 -4 -17 -10 -14 -5 3 -7 0 -4 -8 4 -11 -6 -14 -47 -12 -36 1
-58 -3 -69 -14 -9 -9 -30 -25 -45 -36 -29 -20 -48 -36 -114 -91 -20 -16 -76
-61 -126 -99 -114 -89 -124 -96 -147 -117 -10 -10 -22 -18 -27 -18 -5 0 -11
-4 -13 -8 -1 -5 -30 -28 -63 -52 -33 -24 -66 -50 -73 -57 -8 -7 -23 -18 -34
-24 -20 -11 -37 -24 -93 -71 -18 -16 -36 -28 -40 -28 -4 0 -27 -16 -51 -35
-23 -19 -45 -35 -48 -35 -3 0 -37 -22 -76 -50 -39 -27 -73 -50 -77 -50 -3 0
-21 -11 -39 -25 -18 -14 -35 -25 -39 -25 -3 0 -31 -16 -61 -35 -30 -19 -60
-35 -67 -35 -7 0 -33 -9 -56 -21 -61 -29 -73 -21 -67 43 3 35 3 42 -2 23 l-8
-30 -7 25 c-15 54 -5 206 12 195 4 -2 5 10 3 26 -3 17 0 40 5 52 16 35 33 92
33 110 0 9 4 17 10 17 5 0 7 6 4 14 -3 7 4 30 15 50 15 26 21 55 21 101 0 36
-4 65 -8 65 -5 0 -17 17 -28 38 -26 51 -120 142 -176 170 -84 41 -121 28 -208
-76 -30 -36 -73 -84 -95 -108 -22 -23 -78 -84 -125 -134 -47 -51 -110 -118
-140 -149 -30 -32 -73 -77 -96 -102 -22 -24 -92 -91 -154 -149 -62 -58 -127
-120 -143 -137 -16 -18 -34 -30 -38 -27 -5 3 -9 1 -9 -5 0 -12 -182 -161 -197
-161 -5 0 -23 -14 -41 -31 -17 -17 -36 -28 -42 -24 -6 4 -18 -1 -25 -11 -13
-17 -14 -17 -15 -2 0 9 5 20 10 23 6 3 10 15 10 26 0 10 5 19 12 19 6 0 9 3 5
6 -3 3 0 22 7 42 7 21 11 43 9 50 -3 6 0 12 6 12 6 0 11 9 11 20 0 11 4 20 9
20 5 0 8 8 7 18 0 9 5 16 12 14 8 -1 11 1 8 6 -11 19 44 152 64 152 5 0 7 6 4
14 -3 7 11 39 30 69 20 31 36 59 36 63 0 3 10 19 23 34 12 16 33 45 47 65 70
101 193 235 300 324 29 25 59 51 67 59 8 8 17 12 20 9 3 -4 18 7 33 23 16 17
35 30 43 30 9 0 19 5 22 11 4 6 14 8 22 5 8 -3 12 -2 9 3 -6 9 172 101 194
101 17 0 120 30 142 41 10 5 62 9 115 9 86 0 104 -3 149 -26 33 -17 55 -37 64
-57 20 -46 83 -111 145 -148 30 -18 55 -36 55 -39 0 -11 95 5 118 20 12 8 22
23 22 33 0 10 5 15 10 12 6 -4 10 10 10 35 0 25 -4 39 -10 35 -6 -3 -10 4 -10
18 0 13 -11 47 -25 75 -14 29 -25 57 -25 64 0 6 -11 26 -25 44 -14 18 -25 37
-25 43 0 6 -4 11 -10 11 -5 0 -10 7 -10 15 0 8 -4 15 -10 15 -13 0 -76 70 -72
82 1 5 -2 6 -8 3 -7 -4 -21 2 -33 13 -12 11 -40 28 -62 38 -22 10 -42 20 -45
23 -14 16 -55 32 -95 38 -25 3 -45 10 -45 14 0 5 -13 9 -30 9 -16 0 -30 5 -30
10 0 6 -39 11 -92 12 -84 1 -88 2 -38 8 46 6 38 7 -45 7 -70 0 -88 -2 -60 -7
38 -7 38 -7 -20 -10 -33 -1 -73 -1 -89 0 -18 1 -26 -2 -22 -9 5 -7 -5 -11 -28
-11 -19 0 -37 -4 -40 -9 -3 -4 -29 -11 -58 -15 -28 -4 -80 -21 -114 -37 -35
-17 -68 -28 -73 -24 -6 3 -20 -3 -32 -14 -12 -11 -38 -28 -58 -37 -86 -40
-209 -139 -339 -273 -113 -116 -143 -148 -165 -181 -9 -14 -39 -54 -67 -90
-27 -35 -50 -69 -50 -75 0 -6 -9 -17 -20 -25 -11 -8 -20 -20 -20 -28 0 -7 -5
-10 -12 -6 -7 4 -8 3 -4 -5 4 -6 -5 -30 -21 -54 -15 -23 -41 -68 -58 -99 -16
-31 -33 -54 -38 -51 -4 2 -5 -7 -1 -21 3 -14 2 -26 -3 -26 -5 0 -15 -16 -23
-35 -8 -19 -18 -35 -23 -35 -5 0 -7 -13 -3 -30 3 -17 1 -30 -4 -30 -6 0 -10
-11 -10 -24 0 -14 -4 -28 -10 -31 -5 -3 -10 -15 -10 -26 0 -11 -4 -18 -8 -15
-5 3 -8 -3 -8 -12 0 -73 -6 -125 -12 -115 -4 7 -7 -32 -7 -86 0 -55 3 -97 8
-94 4 2 7 -11 7 -29 0 -18 14 -59 30 -91 16 -33 26 -66 23 -75 -4 -10 -3 -14
2 -10 8 7 55 -43 55 -59 0 -5 23 -29 51 -53 29 -25 61 -55 72 -67 11 -13 27
-23 34 -23 7 0 13 -5 13 -11 0 -6 6 -9 13 -6 6 2 27 -5 45 -15 37 -20 186 -26
197 -8 4 6 15 8 26 5 13 -4 19 -2 17 6 -2 7 6 13 17 14 31 3 65 16 65 26 0 5
7 9 15 9 8 0 15 4 15 9 0 5 12 12 28 16 15 3 42 20 59 38 18 17 36 28 39 24 4
-4 14 2 23 12 9 9 29 26 46 37 38 24 71 51 114 92 18 18 35 31 37 29 3 -2 31
21 64 52 143 134 145 136 148 115 2 -10 6 -26 9 -34 3 -8 7 -29 8 -45 1 -17
14 -54 28 -84 15 -29 27 -58 27 -64 1 -25 149 -167 175 -167 8 0 15 -4 15 -8
0 -5 10 -8 23 -8 12 1 21 -3 20 -9 -1 -5 17 -11 40 -11 23 -1 57 -5 75 -9 19
-4 43 -3 55 3 23 11 84 23 130 24 15 0 27 5 27 9 0 5 15 9 34 9 19 0 36 3 38
8 5 12 85 52 91 46 3 -3 26 8 51 25 24 17 49 31 54 31 5 0 28 14 50 30 23 17
46 30 51 30 5 0 15 7 22 16 8 9 30 27 49 39 33 21 129 95 191 148 14 12 44 36
65 52 72 56 238 200 277 239 30 30 45 30 29 -1 -5 -10 -18 -37 -28 -60 -11
-24 -22 -43 -26 -43 -5 0 -8 -7 -8 -15 0 -8 -5 -15 -11 -15 -6 0 -9 -8 -6 -19
2 -10 -4 -29 -14 -42 -10 -13 -19 -30 -19 -36 0 -7 -4 -13 -10 -13 -5 0 -10
-9 -10 -21 0 -19 -27 -78 -41 -89 -4 -3 -10 -21 -14 -40 -4 -19 -16 -47 -26
-62 -11 -14 -19 -31 -19 -37 0 -6 -5 -11 -11 -11 -5 0 -9 -8 -8 -17 3 -21 -32
-103 -43 -103 -5 0 -8 -12 -8 -26 0 -14 -11 -45 -25 -70 -14 -25 -25 -54 -25
-64 0 -11 -4 -20 -10 -20 -5 0 -9 -10 -7 -22 1 -13 -3 -22 -9 -21 -7 1 -10 -6
-7 -16 3 -10 0 -22 -6 -25 -6 -4 -11 -16 -11 -27 0 -10 -4 -19 -9 -19 -4 0
-11 -19 -13 -42 -3 -24 -15 -63 -27 -87 -11 -25 -21 -60 -21 -78 0 -19 -4 -32
-9 -29 -4 3 -8 -7 -8 -22 0 -15 -6 -45 -13 -67 -7 -22 -15 -61 -17 -87 -3 -27
-8 -48 -12 -48 -3 0 -6 -67 -6 -150 0 -82 3 -150 8 -150 4 0 7 -11 7 -26 0
-14 11 -42 25 -62 14 -20 25 -40 25 -44 0 -14 122 -137 149 -152 100 -54 128
-66 153 -66 15 0 28 -4 28 -10 0 -5 16 -10 35 -10 19 0 35 -3 35 -7 0 -5 49
-8 109 -8 60 -1 107 3 105 7 -3 4 15 8 40 8 25 0 48 5 51 10 3 6 22 10 41 10
34 0 168 40 206 60 10 6 26 10 35 10 10 0 38 11 62 25 23 14 49 25 57 25 12 0
75 32 229 115 28 15 57 33 66 41 8 8 19 14 24 14 4 0 22 10 39 23 17 13 38 26
46 29 8 3 44 28 80 54 36 27 99 72 140 99 41 28 82 58 92 68 10 9 23 17 29 17
7 0 19 8 28 18 9 9 43 35 75 57 33 22 76 54 96 70 20 17 50 40 66 52 16 12 54
41 85 65 31 24 109 83 172 131 64 49 121 95 128 103 6 8 15 14 19 14 5 0 21
12 37 28 16 15 44 39 63 54 19 14 53 40 75 57 22 17 45 34 50 38 17 13 139
115 160 135 11 10 56 48 100 84 44 36 96 80 116 97 20 18 45 39 55 48 10 8 55
46 99 85 44 38 93 80 109 94 46 40 46 40 166 150 63 58 127 118 142 135 l28
29 0 -37 c0 -20 -3 -37 -7 -37 -5 0 -9 -15 -10 -32 -2 -18 -6 -80 -11 -138
-14 -182 11 -354 67 -470 27 -57 58 -97 127 -168 50 -51 88 -95 85 -99 -3 -3
0 -3 7 1 8 5 25 -4 44 -23 18 -17 38 -31 45 -31 7 0 31 -11 53 -25 22 -14 53
-25 70 -25 16 0 30 -4 30 -8 0 -10 226 -10 236 1 4 4 21 7 37 7 16 0 41 9 56
19 15 11 40 23 56 27 17 4 43 20 60 36 16 15 33 28 36 28 14 0 143 106 205
168 50 50 194 225 194 236 0 4 11 22 25 40 14 18 25 36 25 40 0 5 10 22 23 39
24 33 53 86 129 232 15 29 63 139 78 180 4 11 20 62 36 112 27 85 43 109 59
83 3 -5 17 -10 31 -10 13 0 24 -5 24 -11 0 -5 8 -9 18 -8 9 1 28 1 42 0 19 -1
22 -3 11 -10 -10 -6 43 -9 142 -9 89 0 154 4 151 9 -3 5 15 9 40 9 25 0 46 5
46 10 0 6 11 10 24 10 14 0 28 5 32 11 4 7 21 9 46 5 26 -4 37 -3 33 4 -3 5 1
10 10 10 8 0 34 8 58 19 61 27 97 41 103 41 3 0 -4 -12 -15 -26 -12 -15 -21
-35 -21 -45 0 -11 -3 -19 -8 -19 -4 0 -16 -17 -27 -37 -11 -21 -34 -61 -52
-90 -18 -29 -33 -59 -33 -68 0 -8 -4 -15 -10 -15 -5 0 -10 -6 -10 -14 0 -7 -7
-19 -15 -26 -8 -7 -15 -20 -15 -29 0 -10 -8 -26 -18 -37 -10 -10 -30 -45 -46
-76 -16 -32 -32 -55 -36 -53 -4 3 -10 -9 -14 -25 -6 -34 -50 -103 -59 -94 -3
3 -3 -4 0 -16 3 -12 1 -25 -4 -29 -18 -11 -63 -90 -63 -111 0 -11 -4 -20 -10
-20 -5 0 -10 -9 -10 -20 0 -11 5 -20 10 -20 6 0 10 -11 10 -24 0 -14 5 -28 10
-31 6 -4 8 -10 5 -15 -7 -11 76 -121 110 -148 13 -11 21 -22 17 -26 -3 -4 0
-4 9 -1 8 3 24 -4 36 -15 12 -11 36 -20 53 -20 16 0 30 -4 30 -10 0 -5 7 -10
15 -10 8 0 15 5 15 10 0 6 8 10 18 10 18 0 58 38 78 72 5 9 29 38 54 65 25 27
61 69 80 93 19 24 44 53 55 65 11 11 40 46 65 76 25 29 47 56 50 59 13 13 110
123 155 175 28 32 59 68 70 80 11 12 56 61 100 110 44 49 91 101 105 115 20
21 148 159 197 212 7 7 18 18 25 24 7 6 20 21 28 33 8 12 21 19 28 16 7 -2 11
-1 8 4 -7 11 19 33 28 24 4 -4 4 1 0 12 -6 15 -4 17 10 12 9 -4 15 -3 12 2 -8
12 19 33 29 23 5 -4 5 -1 1 6 -10 17 69 96 85 86 7 -4 9 -3 6 3 -8 13 97 117
274 272 136 119 270 220 336 253 24 12 43 25 43 30 0 4 4 8 10 8 5 0 1 -16
-10 -35 -11 -19 -29 -51 -40 -71 -12 -20 -19 -39 -16 -42 6 -6 -35 -85 -46
-90 -5 -2 -8 -13 -8 -23 0 -11 -11 -40 -25 -65 -14 -25 -25 -51 -25 -59 0 -8
-4 -15 -10 -15 -5 0 -10 -7 -10 -16 0 -18 -31 -77 -42 -82 -5 -2 -8 -15 -8
-28 0 -17 -4 -23 -12 -18 -6 4 -8 3 -5 -3 7 -11 -14 -63 -25 -63 -5 0 -8 -11
-8 -25 0 -14 -5 -25 -11 -25 -5 0 -7 -5 -4 -10 3 -6 -3 -23 -14 -39 -12 -16
-21 -36 -21 -45 0 -9 -4 -16 -10 -16 -5 0 -10 -7 -10 -16 0 -15 -29 -74 -41
-84 -3 -3 -9 -22 -13 -42 -4 -21 -10 -38 -14 -38 -4 0 -13 -15 -21 -32 -34
-85 -67 -146 -74 -141 -5 3 -8 -3 -7 -13 4 -32 0 -45 -9 -40 -5 4 -7 -3 -4
-14 3 -11 0 -20 -6 -20 -20 0 -13 -109 9 -140 11 -15 17 -30 14 -33 -11 -11
94 -122 151 -158 22 -14 57 -32 77 -39 48 -18 81 -2 115 55 21 34 180 197 225
230 7 6 41 33 75 60 90 72 108 85 203 145 47 29 88 58 91 63 4 6 14 7 24 4 9
-4 14 -3 10 3 -3 6 -1 10 4 10 6 0 11 -7 11 -15 0 -8 -5 -15 -11 -15 -5 0 -7
-5 -4 -10 7 -12 -16 -70 -27 -70 -5 0 -8 -14 -8 -31 0 -20 -4 -28 -12 -23 -8
5 -9 -3 -5 -29 3 -20 1 -39 -4 -42 -5 -4 -9 -15 -9 -26 0 -10 -4 -19 -10 -19
-5 0 -10 -11 -10 -25 0 -14 -4 -25 -10 -25 -5 0 -10 -25 -10 -56 0 -32 -4 -53
-9 -49 -6 3 -8 -8 -4 -29 3 -19 1 -36 -6 -40 -15 -10 -15 -212 0 -222 6 -4 9
-19 5 -38 -4 -22 -3 -27 4 -16 8 12 10 11 10 -7 0 -13 3 -23 8 -23 4 0 21 -14
39 -30 31 -29 36 -30 122 -30 54 0 91 4 91 10 0 6 7 10 16 10 9 0 29 9 44 20
16 11 35 17 44 14 9 -3 16 -1 16 5 0 6 6 11 13 11 7 0 22 8 33 19 11 10 31 22
45 26 13 4 26 11 29 15 3 4 31 25 64 46 32 22 71 48 86 59 15 11 40 29 56 40
16 10 43 31 61 45 17 14 46 37 65 52 68 54 325 273 373 318 104 97 249 236
264 253 8 9 18 17 21 17 3 0 5 -53 6 -117 1 -142 5 -193 16 -187 4 3 8 -6 8
-20 0 -14 4 -26 9 -26 9 0 27 -71 24 -97 0 -7 3 -11 9 -10 5 1 22 -22 38 -50
16 -29 26 -53 22 -53 -3 0 4 -7 16 -16 12 -8 22 -19 22 -24 0 -25 195 -220
252 -252 21 -12 38 -25 38 -30 0 -4 7 -8 15 -8 8 0 15 -4 15 -10 0 -5 7 -10
16 -10 18 0 77 -31 82 -42 2 -5 26 -8 53 -8 28 0 48 -4 45 -9 -6 -9 29 -12
184 -11 179 0 210 2 204 11 -6 11 5 12 67 9 26 -1 50 3 53 9 4 6 16 11 27 11
19 0 28 4 76 28 12 7 30 9 39 5 9 -3 20 0 25 8 7 12 9 12 9 -1 0 -9 3 -11 8
-5 12 18 117 65 143 65 14 0 29 4 35 9 22 22 85 50 99 45 8 -4 15 -1 15 5 0 6
5 11 11 11 6 0 23 8 37 19 15 10 38 22 52 26 14 4 36 15 50 25 14 10 36 21 50
25 14 4 43 19 65 34 22 14 57 35 78 45 20 11 37 23 37 27 0 4 14 10 30 14 17
4 30 10 30 14 0 4 17 16 37 27 36 19 62 37 88 62 8 6 18 12 24 12 5 0 16 6 23
13 7 8 33 26 57 42 25 15 54 36 65 46 11 11 23 19 27 19 5 0 19 11 33 25 14
14 28 25 31 25 5 0 138 107 187 151 64 57 237 230 263 263 17 20 40 49 53 64
12 15 36 55 53 90 l29 63 -25 50 c-30 61 -66 97 -125 127 -47 23 -86 29 -75
12 3 -5 -3 -10 -14 -10 -12 0 -21 -5 -21 -11 0 -7 -10 -9 -25 -6 -14 2 -24 2
-21 0 3 -3 0 -10 -5 -17 -46 -54 -59 -72 -59 -79 0 -5 -5 -5 -12 -1 -6 4 -8 3
-5 -3 9 -14 -23 -55 -104 -133 -80 -77 -118 -110 -128 -110 -4 0 -20 -13 -36
-30 -15 -16 -32 -27 -36 -24 -4 2 -10 0 -14 -6 -4 -6 -11 -8 -16 -4 -5 3 -8 0
-7 -8 2 -8 -4 -12 -16 -10 -10 2 -15 -1 -12 -6 3 -5 -15 -22 -39 -38 -25 -15
-45 -32 -45 -36 0 -4 -8 -8 -18 -8 -11 0 -27 -9 -37 -20 -10 -12 -25 -18 -32
-15 -8 2 -11 0 -8 -5 3 -6 0 -10 -7 -10 -7 0 -24 -9 -37 -19 -14 -10 -31 -16
-40 -13 -8 3 -12 1 -8 -5 3 -5 -6 -16 -21 -23 -15 -7 -34 -16 -42 -21 -8 -5
-23 -12 -32 -15 -10 -4 -18 -10 -18 -15 0 -5 -7 -9 -15 -9 -9 0 -33 -11 -55
-25 -22 -14 -46 -25 -55 -25 -8 0 -15 -4 -15 -10 0 -5 -7 -10 -16 -10 -8 0
-32 -11 -52 -25 -20 -14 -45 -25 -55 -25 -11 0 -32 -9 -47 -20 -16 -11 -43
-23 -62 -27 -18 -3 -52 -17 -75 -30 -23 -13 -51 -23 -62 -23 -12 0 -21 -4 -21
-10 0 -5 -8 -10 -18 -10 -10 0 -38 -9 -61 -21 -24 -11 -60 -23 -80 -26 -35 -4
-55 -11 -104 -34 -13 -5 -47 -14 -77 -19 -30 -5 -75 -14 -100 -19 -165 -39
-273 -48 -362 -30 -53 10 -60 13 -128 42 -94 41 -129 157 -98 323 6 35 15 61
19 59 4 -3 5 4 2 15 -3 11 6 44 21 74 14 29 26 60 26 68 0 29 27 41 79 34 31
-4 50 -3 53 4 2 6 29 11 61 12 31 1 57 5 57 10 0 4 14 8 30 8 17 0 30 4 30 9
0 8 133 28 153 23 4 -1 7 2 7 8 0 5 11 10 25 10 14 0 25 5 25 10 0 6 9 10 19
10 11 0 23 5 26 10 3 6 24 8 46 5 22 -3 38 -1 35 3 -2 4 10 14 27 21 18 7 42
17 54 23 11 6 26 7 32 4 6 -4 11 -2 11 3 0 6 6 11 13 11 7 0 30 9 51 20 22 11
61 27 88 36 26 8 48 19 48 22 0 4 15 13 33 20 17 7 39 18 47 23 8 5 23 12 33
15 9 4 17 9 17 13 0 3 12 12 28 18 15 7 39 24 54 38 15 14 31 25 36 25 5 0 20
12 34 28 14 15 40 38 57 52 39 31 170 183 196 228 11 17 23 32 27 32 4 0 8 7
8 16 0 9 5 12 12 8 7 -4 8 -3 4 4 -4 7 7 32 23 56 17 25 31 50 31 56 0 7 11
33 24 59 42 79 67 221 53 306 -4 28 -9 60 -10 73 -1 12 -5 22 -9 22 -5 0 -8 7
-8 15 0 39 -123 191 -194 240 -16 11 -35 26 -42 33 -7 7 -17 12 -21 11 -9 -2
-39 8 -65 22 -25 13 -135 11 -144 -2 -3 -6 -17 -9 -30 -6 -13 2 -24 0 -24 -4
0 -5 -13 -9 -30 -9 -16 0 -30 -3 -30 -7 0 -12 -82 -49 -98 -45 -7 2 -21 -5
-30 -15 -20 -21 -75 -53 -91 -53 -7 0 -22 -9 -34 -20 -12 -12 -33 -24 -47 -27
-13 -3 -36 -17 -50 -30 -23 -21 -29 -24 -46 -22 -3 0 -13 -8 -22 -18 -19 -21
-128 -103 -137 -103 -3 0 -21 -16 -39 -35 -19 -19 -41 -35 -50 -35 -9 0 -16
-4 -16 -9 0 -11 -15 -27 -58 -61 -70 -54 -281 -259 -362 -350 -30 -34 -64 -72
-75 -84 -33 -37 -80 -98 -84 -109 -7 -20 -49 -56 -57 -49 -4 4 -4 1 1 -6 4 -8
2 -24 -5 -36 -9 -17 -18 -21 -40 -18 -15 2 -31 -1 -34 -7 -4 -6 -15 -11 -24
-11 -9 0 -43 -24 -74 -53 -32 -28 -78 -68 -103 -87 -25 -19 -54 -42 -63 -52
-9 -9 -44 -37 -77 -62 -33 -25 -72 -56 -87 -68 -14 -13 -39 -33 -55 -46 -15
-12 -44 -36 -63 -52 -62 -51 -115 -94 -155 -125 -22 -16 -52 -42 -68 -57 -16
-16 -31 -28 -34 -28 -5 0 -53 -39 -98 -78 -11 -10 -62 -51 -112 -92 -51 -40
-93 -77 -93 -82 0 -4 -5 -8 -11 -8 -5 0 -7 4 -4 10 20 32 35 133 35 233 -1 98
-4 118 -25 162 -14 28 -25 54 -25 58 0 34 -157 207 -187 207 -16 0 -63 25 -63
33 0 5 -4 6 -9 3 -5 -4 -17 -3 -26 0 -9 4 -12 10 -7 13 6 3 -30 6 -78 6 -49 0
-83 -3 -78 -6 6 -4 1 -10 -11 -14 -11 -3 -25 -3 -31 0 -5 3 -10 1 -10 -4 0 -6
-9 -11 -19 -11 -11 0 -23 -4 -26 -10 -3 -5 -16 -10 -27 -10 -12 0 -41 -12 -66
-26 -25 -15 -43 -22 -40 -18 5 12 25 58 37 87 5 12 13 48 16 79 4 32 11 60 16
63 5 4 9 17 9 30 0 13 5 27 10 30 6 3 10 30 10 59 0 29 3 56 8 60 4 4 8 22 9
39 1 18 6 75 11 127 5 56 6 128 0 175 -5 44 -10 90 -11 103 -1 12 -5 22 -9 22
-5 0 -8 10 -8 23 0 28 -60 103 -108 136 -20 13 -39 27 -42 30 -9 11 -260 11
-260 1 0 -6 -7 -10 -15 -10 -8 0 -31 -9 -50 -20 -20 -11 -40 -18 -46 -15 -5 3
-19 -3 -31 -14 -12 -12 -27 -21 -34 -21 -6 0 -17 -7 -24 -15 -7 -8 -19 -15
-28 -15 -8 0 -22 -8 -31 -18 -9 -11 -36 -32 -60 -48 -79 -52 -88 -59 -112 -81
-13 -12 -67 -57 -119 -101 -52 -43 -101 -86 -109 -95 -26 -32 -32 -17 -10 23
13 22 26 40 31 40 4 0 8 9 8 20 0 11 5 20 10 20 6 0 10 12 10 26 0 14 -4 23
-10 19 -5 -3 -10 4 -10 15 0 12 -9 35 -21 51 -11 16 -17 34 -13 40 4 8 3 9 -4
5 -7 -4 -12 -1 -13 6 -1 7 -32 41 -69 75 -38 35 -63 64 -57 67 7 3 0 3 -15 0
-17 -4 -28 -2 -28 5 0 6 -7 11 -15 11 -8 0 -15 5 -15 10 0 6 -22 10 -48 10
-34 0 -51 -5 -60 -17 -29 -42 -82 -136 -82 -146 0 -6 -6 -18 -14 -26 -17 -20
-75 -120 -83 -143 -3 -10 -9 -18 -14 -18 -5 0 -9 -7 -9 -16 0 -8 -11 -30 -25
-48 -14 -18 -25 -40 -25 -48 0 -8 -9 -27 -21 -42 -12 -15 -31 -46 -44 -69 -41
-78 -76 -140 -91 -161 -8 -11 -14 -27 -14 -34 0 -25 -25 -41 -45 -29 -27 14
-96 17 -119 3 -11 -6 -29 -19 -40 -28 -11 -10 -27 -18 -36 -18 -8 0 -31 -11
-50 -23 -36 -25 -76 -38 -122 -40 -14 -1 -26 -6 -25 -12 1 -5 -8 -9 -20 -8
-13 2 -23 -2 -23 -7 0 -6 -13 -10 -29 -10 -17 0 -32 -4 -36 -9 -8 -14 -444
-12 -478 2 -28 12 -29 13 -21 62 17 108 0 366 -30 465 -10 30 -21 73 -25 95
-4 22 -16 58 -28 80 -11 22 -26 54 -34 70 -7 17 -24 44 -36 61 -13 17 -23 34
-23 39 0 13 -70 97 -124 148 -28 26 -50 52 -49 57 2 5 -4 7 -13 3 -9 -3 -19
-2 -23 4 -13 19 -67 51 -98 58 -18 3 -35 11 -38 16 -4 5 -15 9 -26 9 -10 0
-19 4 -19 9 0 5 -38 10 -85 10 -50 1 -85 -3 -85 -9 0 -6 -7 -10 -15 -10 -9 0
-25 -9 -37 -19 -11 -11 -26 -17 -33 -15 -7 3 -16 -3 -19 -13 -3 -10 -19 -34
-36 -53 -16 -19 -30 -43 -30 -52 0 -10 -4 -18 -10 -18 -5 0 -7 -13 -3 -30 3
-19 1 -30 -6 -30 -15 0 -15 -226 0 -236 6 -4 8 -20 4 -40 -3 -19 -2 -34 3 -34
6 0 12 -17 14 -37 3 -21 9 -47 13 -58 8 -17 6 -17 -16 4 -29 27 -121 71 -150
71 -53 0 -258 -190 -343 -318 -25 -37 -54 -77 -65 -89 -12 -12 -21 -28 -21
-35 -1 -7 -11 -25 -23 -40 -17 -21 -28 -25 -49 -21 -16 3 -28 9 -28 14 0 5
-13 9 -30 9 -16 0 -30 -4 -30 -10 0 -5 -9 -10 -20 -10 -11 0 -27 -12 -37 -27
-40 -63 -105 -143 -177 -217 -42 -44 -76 -83 -76 -88 0 -4 -5 -8 -11 -8 -5 0
-47 -37 -93 -82 -45 -46 -126 -121 -180 -168 -54 -47 -116 -102 -137 -122 -22
-21 -42 -38 -47 -38 -4 0 -19 -12 -33 -27 -28 -31 -130 -119 -141 -122 -4 -1
-23 -16 -42 -34 -65 -60 -97 -87 -102 -87 -3 0 -22 -16 -41 -35 -19 -19 -39
-35 -45 -35 -5 0 -21 -14 -35 -30 -13 -17 -29 -28 -34 -24 -5 3 -9 1 -9 -3 0
-9 -126 -113 -136 -113 -3 0 -15 -11 -28 -25 -13 -14 -27 -25 -32 -25 -4 0
-17 -9 -29 -20 -28 -28 -184 -150 -192 -150 -3 0 -19 -14 -35 -31 -16 -17 -32
-28 -35 -25 -3 3 -17 -7 -32 -22 -14 -15 -39 -36 -56 -46 -16 -11 -34 -25 -38
-33 -4 -7 -15 -13 -24 -13 -9 0 -25 -10 -37 -23 -22 -25 -211 -167 -221 -167
-3 0 -17 -11 -31 -25 -14 -14 -29 -25 -35 -25 -5 0 -22 -11 -37 -25 -15 -14
-33 -25 -40 -25 -7 0 -25 -14 -39 -30 -19 -23 -31 -29 -47 -24 -11 4 -18 3
-14 -1 9 -9 -38 -52 -66 -61 -10 -4 -32 -19 -48 -36 -15 -16 -33 -26 -38 -23
-5 3 -24 -8 -41 -25 -23 -21 -38 -29 -53 -24 -17 4 -18 3 -6 -5 11 -8 11 -11
2 -11 -7 0 -23 -9 -35 -20 -12 -11 -27 -18 -35 -15 -7 2 -10 0 -7 -5 3 -6 -3
-10 -14 -10 -12 0 -21 -4 -21 -8 0 -12 -56 -42 -78 -42 -11 0 -22 -3 -24 -7
-1 -5 -24 -18 -49 -31 -32 -16 -54 -21 -75 -17 -22 5 -25 4 -14 -4 12 -9 10
-11 -12 -11 -15 0 -30 -4 -33 -10 -3 -5 -16 -10 -29 -10 -12 0 -27 -5 -33 -11
-6 -6 -62 -13 -124 -15 -121 -6 -167 5 -161 38 1 9 -2 19 -8 23 -5 3 -10 13
-10 21 0 8 5 12 10 9 11 -7 8 50 -6 108 -4 18 -2 27 6 27 9 0 11 11 6 40 -5
31 -3 42 9 46 10 4 13 13 9 26 -3 11 -2 30 4 42 5 11 15 33 22 48 7 15 10 38
8 53 -4 17 -1 28 8 32 7 2 11 10 8 18 -3 7 4 29 15 49 12 20 21 48 21 61 0 14
5 25 11 25 6 0 9 6 6 13 -3 7 4 30 14 52 10 21 19 45 19 52 0 7 5 13 10 13 6
0 10 12 10 26 0 14 11 46 25 70 14 25 25 51 23 57 -2 12 25 75 78 182 13 28
24 56 24 63 0 6 5 12 10 12 6 0 10 7 10 16 0 18 31 77 43 82 4 2 7 12 7 22 0
16 73 172 138 295 8 17 19 37 22 45 4 8 14 29 23 45 20 40 80 155 93 180 6 11
19 36 29 55 52 99 67 128 85 158 11 17 17 32 14 32 -3 0 9 20 26 44 16 25 30
50 30 56 0 6 11 28 25 48 14 20 25 40 25 44 0 4 16 32 35 62 19 30 35 62 35
71 0 8 3 15 8 15 10 0 42 58 42 76 0 8 4 14 8 14 5 0 21 22 35 49 17 30 36 51
50 55 12 3 41 21 64 41 23 19 46 35 51 35 6 0 12 3 14 8 2 4 28 27 58 52 30
24 56 48 58 52 2 5 9 8 16 8 7 0 25 14 39 30 15 17 31 30 36 30 5 0 23 12 39
28 17 15 67 56 113 92 45 36 91 75 102 88 12 12 26 22 33 22 8 0 18 9 24 19 5
11 21 26 34 33 28 15 218 173 289 241 28 26 54 47 58 47 4 0 22 15 41 33 18
17 76 68 128 112 52 44 100 84 106 90 6 5 46 42 89 80 44 39 90 82 104 96 14
14 49 45 76 69 269 231 740 698 1029 1020 37 41 92 101 122 133 30 31 51 57
47 57 -4 0 7 13 25 29 17 17 32 34 32 40 0 5 3 11 8 13 4 2 27 28 52 58 25 30
48 56 53 58 4 2 7 9 7 15 0 7 16 29 35 49 19 20 35 39 35 42 0 9 64 100 83
117 9 9 17 20 17 24 0 4 16 29 35 55 19 26 35 51 35 55 0 3 11 21 25 39 14 18
25 40 25 49 0 10 4 17 8 17 5 0 17 18 28 40 10 22 22 40 27 40 4 0 7 7 7 15 0
9 11 33 25 55 14 22 24 43 23 47 -1 5 10 27 25 50 15 24 27 54 27 68 0 14 4
25 9 25 5 0 12 13 16 30 4 16 11 32 16 35 5 4 9 19 9 36 0 16 4 29 8 29 4 0
13 26 20 58 7 31 17 80 23 107 18 83 7 211 -24 276 -15 31 -27 59 -27 64 0 13
-112 136 -129 143 -9 3 -32 18 -51 34 -19 15 -41 28 -48 28 -7 0 -37 11 -67
24 -60 28 -178 39 -280 27z m273 -333 c2 -16 -1 -28 -7 -28 -7 0 -11 -23 -11
-54 0 -30 -5 -58 -11 -62 -6 -4 -8 -20 -5 -39 4 -19 2 -36 -4 -40 -5 -3 -10
-15 -10 -26 0 -10 -4 -19 -10 -19 -5 0 -10 -9 -10 -20 0 -11 -4 -20 -10 -20
-5 0 -10 -12 -10 -26 0 -30 -28 -94 -41 -94 -5 0 -9 -12 -9 -26 0 -17 -4 -23
-12 -18 -8 5 -9 2 -5 -9 8 -20 -32 -99 -46 -90 -6 4 -8 -1 -4 -11 6 -15 -21
-68 -43 -86 -4 -3 -10 -16 -13 -30 -3 -14 -15 -35 -27 -47 -11 -12 -20 -26
-20 -31 0 -16 -57 -82 -65 -74 -4 4 -5 0 -3 -9 3 -17 2 -19 -112 -173 -117
-158 -163 -210 -175 -198 -5 4 -5 1 0 -7 5 -9 -3 -23 -25 -42 -18 -16 -29 -29
-26 -29 4 0 -25 -37 -66 -82 -40 -45 -77 -88 -83 -94 -140 -160 -687 -708
-893 -893 -45 -41 -122 -110 -207 -186 -43 -38 -96 -86 -117 -105 -44 -41 -36
-34 -225 -196 -81 -69 -159 -137 -173 -150 -43 -41 -90 -76 -90 -67 0 13 67
93 73 87 3 -3 3 2 1 13 -3 10 4 28 15 40 11 11 26 36 34 54 8 19 24 43 35 55
11 11 22 29 26 40 3 10 17 32 31 48 14 16 25 35 25 43 0 8 9 24 21 36 11 12
28 35 36 51 8 16 36 61 61 100 26 39 53 83 61 99 7 15 17 27 21 27 4 0 15 18
25 40 10 22 21 40 25 40 4 0 15 17 26 38 26 51 60 92 69 84 5 -4 5 -1 1 6 -6
10 21 62 44 82 3 3 14 22 24 43 11 20 23 37 28 37 4 0 8 7 8 16 0 8 4 12 10 9
5 -3 7 0 5 8 -3 7 8 28 26 46 17 18 28 35 25 38 -3 3 5 19 19 34 13 16 34 47
46 69 13 22 26 40 31 40 4 0 8 7 8 16 0 9 5 12 12 8 7 -4 8 -3 4 5 -4 6 6 27
23 48 17 21 31 42 31 48 0 6 11 22 25 37 14 15 25 32 25 38 0 5 5 10 11 10 5
0 8 4 5 8 -6 10 39 64 47 56 3 -3 3 3 1 13 -3 12 6 30 25 51 17 17 31 36 31
41 0 4 13 25 29 45 19 24 31 32 35 24 3 -7 4 -1 1 13 -3 17 1 31 10 39 9 7 30
37 48 67 17 29 35 53 39 53 5 0 8 7 8 15 0 8 11 25 25 39 14 14 25 30 25 36 0
6 5 8 12 4 7 -5 9 -2 6 8 -4 9 5 28 23 47 15 17 27 34 26 36 -3 8 37 65 46 65
4 0 7 4 7 9 0 11 64 108 96 143 13 15 24 31 24 34 0 4 11 16 23 28 13 12 28
30 34 39 24 44 193 220 297 312 38 33 79 71 92 84 13 13 24 20 24 15 0 -4 16
7 35 26 19 19 35 31 35 27 0 -4 21 9 46 28 25 19 50 35 55 35 6 0 25 11 43 25
18 14 38 25 45 25 6 0 29 11 51 25 22 14 48 25 59 25 11 0 23 5 26 10 3 6 17
10 30 10 13 0 27 5 30 11 4 5 23 9 43 7 32 -3 37 -7 40 -30z m6875 -3615 c-7
-2 -13 -9 -13 -14 0 -15 -102 -159 -112 -159 -6 0 -7 -7 -4 -16 4 -10 -4 -21
-24 -32 -16 -9 -30 -21 -30 -25 0 -25 -137 -150 -154 -140 -6 3 -8 3 -4 -1 9
-10 -32 -52 -60 -60 -12 -4 -22 -11 -22 -15 0 -4 -18 -17 -40 -30 -22 -12 -40
-20 -40 -17 0 3 -23 -8 -50 -24 -28 -17 -59 -30 -68 -30 -9 0 -39 -11 -66 -25
-27 -14 -57 -25 -66 -25 -9 0 -21 -5 -27 -11 -6 -6 -16 -10 -23 -7 -10 3 76
91 175 178 83 73 219 185 235 195 31 18 135 98 138 107 2 4 8 8 13 8 5 0 39
22 76 48 38 26 85 56 105 65 20 10 40 22 43 27 3 6 12 10 18 9 9 0 9 -2 0 -6z
m-6551 -96 c-2 -9 2 -17 8 -17 5 0 10 -11 10 -24 0 -14 4 -27 9 -30 13 -8 20
-94 23 -289 l3 -178 -27 33 c-15 18 -32 44 -39 58 -6 14 -20 42 -31 63 -11 20
-16 37 -11 37 4 0 3 4 -3 8 -26 16 -42 232 -23 297 13 43 39 66 69 62 8 -2 14
-10 12 -20z m-306 -524 c-3 -8 -1 -11 4 -8 6 3 10 0 10 -9 0 -8 4 -16 8 -18 4
-1 33 -37 64 -78 31 -41 75 -92 97 -114 23 -21 38 -42 35 -47 -3 -5 3 -6 12
-2 14 5 16 3 10 -12 -4 -11 -4 -16 0 -12 11 10 54 -33 54 -54 0 -10 -4 -21
-10 -24 -5 -3 -10 -15 -10 -26 0 -10 -4 -19 -10 -19 -5 0 -10 -9 -10 -19 0
-11 -5 -23 -11 -27 -6 -3 -8 -15 -6 -26 5 -18 -7 -52 -23 -68 -12 -12 -28 -48
-35 -79 -4 -19 -16 -43 -26 -55 -11 -11 -19 -27 -19 -35 0 -14 -2 -14 -10 -1
-8 11 -9 9 -5 -10 4 -17 0 -32 -15 -47 -11 -12 -20 -27 -20 -33 0 -6 -5 -8
-11 -4 -7 4 -9 0 -5 -12 4 -13 -4 -30 -24 -51 -17 -18 -30 -39 -30 -47 0 -8
-9 -24 -20 -34 -11 -10 -35 -40 -53 -65 -19 -26 -37 -44 -42 -40 -4 5 -5 2 -1
-5 10 -16 -154 -180 -230 -232 -27 -19 -52 -38 -55 -43 -4 -5 -12 -6 -18 -3
-6 4 -11 2 -11 -3 0 -6 -6 -11 -13 -11 -8 0 -29 -8 -48 -17 -55 -29 -102 -43
-139 -43 -62 0 -65 6 -65 142 0 114 11 182 36 230 5 10 9 31 9 47 0 17 5 33
10 36 6 4 8 15 5 25 -5 16 15 75 46 132 5 10 9 26 9 35 0 10 11 40 25 67 14
27 25 55 25 63 0 7 5 13 11 13 5 0 7 5 4 10 -3 6 3 23 14 39 12 16 21 34 21
40 0 6 5 11 11 11 5 0 7 5 4 10 -6 10 31 72 47 78 4 2 8 12 8 22 0 10 11 32
25 48 14 17 25 33 25 37 0 31 235 305 262 305 5 0 22 16 39 35 30 34 56 39 45
8z"/>
<path d="M2544 16902 c2 -1 -14 -20 -36 -42 -21 -23 -38 -51 -38 -64 0 -12 -3
-26 -7 -30 -4 -4 -8 -13 -9 -19 -2 -28 -17 -78 -25 -83 -5 -3 -9 -16 -9 -29 0
-25 -17 -35 -57 -35 -25 0 -53 20 -53 39 0 6 -4 11 -10 11 -5 0 -10 22 -10 49
0 28 5 53 10 56 6 3 10 15 10 26 0 10 5 19 10 19 6 0 10 7 10 16 0 8 5 12 10
9 15 -9 12 15 -4 31 -8 8 -19 14 -25 14 -6 0 -11 5 -11 10 0 6 -9 10 -20 10
-20 0 -50 -52 -64 -113 -4 -15 -10 -26 -14 -23 -4 2 -7 -22 -7 -54 0 -32 3
-56 7 -54 4 3 12 -14 18 -37 13 -47 65 -109 92 -109 10 0 18 -4 18 -10 0 -5
21 -10 46 -10 27 0 43 4 39 10 -3 6 2 10 13 10 19 0 72 51 72 70 0 5 4 10 9
10 5 0 12 25 16 55 3 30 11 57 16 60 5 4 9 17 9 31 0 13 4 24 9 24 5 0 11 10
13 23 2 17 10 23 39 25 30 3 39 -2 55 -25 28 -42 23 -133 -11 -202 l-27 -54
31 -29 c29 -27 59 -39 46 -18 -3 6 -1 10 4 10 6 0 11 7 11 15 0 8 5 15 10 15
6 0 10 7 10 15 0 8 4 15 9 15 4 0 6 11 4 24 -3 13 0 27 6 30 14 9 15 182 0
191 -5 4 -9 14 -7 23 2 10 -15 35 -37 57 -39 39 -42 40 -107 40 -36 0 -65 -1
-64 -3z"/>
<path d="M2216 16374 c-8 -20 -8 -58 0 -78 5 -14 39 -16 269 -16 292 0 289 -1
283 67 l-3 38 -271 3 c-241 2 -272 1 -278 -14z"/>
<path d="M2224 16147 c-15 -8 -19 -55 -6 -72 4 -6 19 -16 34 -24 15 -8 36 -22
46 -31 10 -10 29 -21 42 -25 13 -4 33 -16 44 -27 11 -10 32 -22 45 -25 13 -3
33 -13 43 -22 10 -9 37 -26 59 -38 l40 -21 -38 -26 c-21 -14 -41 -26 -46 -26
-5 0 -23 -11 -41 -25 -18 -14 -36 -25 -39 -25 -4 0 -31 -16 -61 -35 -30 -19
-58 -35 -61 -35 -20 0 -75 -55 -75 -75 0 -57 -9 -55 270 -55 142 0 265 3 274
6 11 4 16 19 16 44 0 25 -5 40 -16 44 -9 3 -91 6 -182 7 -124 0 -160 3 -139
11 15 5 27 13 27 18 0 5 14 11 31 15 17 4 45 20 62 36 21 20 36 27 50 23 13
-4 17 -2 13 5 -4 6 0 11 8 11 9 0 16 4 16 8 0 4 14 16 30 25 52 31 35 92 -31
112 -13 4 -38 18 -56 31 -17 13 -35 24 -38 24 -4 0 -28 14 -54 31 -25 18 -57
35 -71 40 -14 4 59 8 163 8 l187 1 0 45 c0 44 -1 45 -32 46 -172 5 -502 2
-514 -4z"/>
<path d="M2700 15483 c-71 -32 -146 -66 -183 -84 -22 -11 -44 -16 -49 -12 -7
3 -8 1 -4 -5 4 -7 1 -13 -6 -13 -34 -3 -68 -18 -113 -48 -16 -12 -39 -21 -49
-21 -11 0 -34 -12 -53 -26 -30 -23 -34 -30 -31 -67 2 -31 9 -44 25 -53 13 -6
20 -14 15 -19 -4 -4 4 -5 17 -2 16 4 34 -1 52 -14 15 -10 32 -19 38 -19 6 0
11 -4 11 -9 0 -4 16 -11 35 -14 19 -3 48 -15 64 -26 16 -12 34 -21 40 -21 18
0 91 -34 91 -42 0 -5 9 -8 20 -8 11 0 20 -5 20 -11 0 -6 7 -8 16 -5 9 3 28 -3
44 -14 15 -11 38 -20 49 -20 18 0 21 6 21 43 0 32 -5 45 -21 56 -53 33 -91 51
-105 51 -11 0 -14 6 -10 16 3 9 6 72 6 141 l0 125 33 -7 c24 -5 28 -4 17 4
-12 9 -10 11 13 11 15 0 27 5 27 10 0 6 6 10 14 10 18 0 26 22 26 71 0 45 -12
48 -70 22z m-158 -267 c-3 -66 -7 -86 -18 -86 -8 0 -14 5 -14 11 0 6 -6 9 -13
6 -7 -3 -24 4 -38 14 -13 10 -32 19 -41 19 -10 0 -18 5 -18 10 0 6 -10 10 -23
10 -13 0 -27 3 -30 6 -9 9 58 44 83 44 11 0 20 5 20 10 0 6 9 10 20 10 11 0
20 3 20 8 0 8 42 30 50 26 3 -1 4 -41 2 -88z"/>
<path d="M23287 15118 c-23 -24 -52 -62 -62 -85 -11 -24 -23 -43 -27 -43 -5 0
-8 -18 -8 -40 0 -22 -5 -40 -10 -40 -6 0 -10 -6 -8 -12 3 -17 -32 -88 -43 -88
-5 0 -9 -9 -9 -21 0 -11 -4 -17 -10 -14 -5 3 -7 0 -5 -7 3 -8 -4 -23 -15 -35
-11 -12 -20 -28 -20 -35 0 -9 -3 -9 -11 2 -8 12 -9 11 -5 -5 8 -28 -34 -75
-68 -75 -14 0 -26 -4 -26 -10 0 -5 -6 -10 -13 -10 -14 0 -97 -78 -97 -92 0 -5
-5 -6 -12 -2 -6 4 -8 3 -5 -4 8 -12 -2 -44 -12 -38 -3 2 -6 -15 -6 -39 0 -24
3 -39 6 -34 3 5 11 -1 18 -13 6 -13 24 -29 38 -35 32 -15 119 -17 128 -3 3 6
15 10 25 10 10 0 20 3 22 8 4 9 66 42 79 42 6 0 20 10 33 23 23 21 100 86 116
97 17 12 180 214 180 223 0 6 6 18 14 26 19 21 86 153 86 169 0 6 5 12 10 12
6 0 10 20 10 44 0 39 -5 49 -47 90 -27 25 -55 46 -63 46 -8 0 -24 7 -34 15
-11 8 -39 15 -63 15 -37 0 -49 -6 -86 -42z"/>
<path d="M2217 14863 c-4 -3 -7 -24 -7 -45 0 -55 21 -60 213 -56 86 2 157 2
157 1 0 -1 -28 -23 -62 -50 -35 -26 -93 -72 -129 -103 -37 -30 -82 -66 -100
-80 -58 -43 -79 -68 -79 -94 0 -58 -11 -56 280 -56 296 0 280 -4 280 65 0 19
-5 37 -11 41 -6 3 -88 6 -183 5 l-171 -2 40 35 c55 48 116 97 149 121 16 11
48 37 71 58 24 21 46 37 48 35 2 -2 16 11 31 29 20 24 26 41 24 65 l-3 33
-271 3 c-149 1 -273 -1 -277 -5z"/>
<path d="M2214 14246 c-3 -8 -4 -29 -2 -48 l3 -33 179 -1 c119 0 181 -4 183
-11 2 -6 12 -9 22 -6 12 3 28 -8 50 -33 25 -32 31 -47 31 -87 0 -26 -6 -60
-14 -75 -13 -26 -25 -34 -88 -62 -13 -6 -99 -11 -193 -13 l-170 -2 -3 -36 c-5
-63 5 -67 185 -61 87 3 175 5 195 6 20 1 36 6 35 11 -1 6 6 9 16 9 9 -1 17 2
17 7 0 5 5 9 11 9 19 0 85 74 81 92 -2 9 2 19 7 23 15 8 14 162 0 171 -6 3 -9
14 -6 24 6 22 -85 110 -113 110 -11 0 -20 5 -20 10 0 6 -73 10 -200 10 -163 0
-202 -3 -206 -14z"/>
<path d="M2369 13679 c-7 -11 -18 -19 -24 -19 -17 0 -95 -84 -95 -103 0 -9 -4
-17 -10 -17 -5 0 -10 -8 -10 -18 0 -10 -3 -22 -7 -25 -9 -9 -17 -280 -9 -312
l6 -25 264 0 c215 0 266 3 275 14 9 10 11 56 7 158 -3 79 -6 158 -6 176 -1 17
-6 32 -11 32 -5 0 -9 5 -9 11 0 7 -8 19 -18 28 -9 9 -23 28 -31 43 -8 15 -18
25 -24 21 -5 -3 -12 -1 -16 4 -3 5 -21 19 -38 31 -29 20 -43 23 -131 21 -85
-1 -101 -4 -113 -20z m226 -111 c63 -44 85 -100 85 -222 0 -76 -2 -87 -16 -82
-9 3 -93 6 -187 6 l-172 0 3 102 c2 57 8 105 13 106 5 2 9 10 9 18 0 8 5 14
10 14 6 0 10 9 10 19 0 10 6 22 13 25 6 3 26 15 42 25 20 13 49 20 86 20 48 1
64 -4 104 -31z"/>
<path d="M2343 12893 c-15 -6 -18 -73 -3 -73 6 0 10 -6 10 -14 0 -9 8 -12 25
-8 15 2 25 0 25 -7 0 -6 6 -11 13 -11 7 0 23 -9 35 -20 12 -11 30 -20 42 -20
29 0 90 -27 90 -39 0 -6 14 -11 30 -11 17 0 30 -4 30 -10 0 -5 -8 -10 -19 -10
-10 0 -39 -11 -65 -25 -26 -14 -52 -25 -59 -25 -12 0 -104 -45 -144 -71 -26
-15 -32 -66 -11 -87 15 -15 48 -16 48 -2 0 6 5 10 11 10 6 0 23 9 38 19 18 13
36 18 51 14 16 -4 21 -3 16 5 -5 8 0 12 13 12 12 0 21 3 21 8 0 7 47 32 62 32
16 0 88 35 88 42 0 5 9 8 19 8 11 0 22 4 25 9 9 14 41 7 70 -14 20 -15 26 -28
26 -57 0 -20 -5 -38 -11 -40 -16 -5 -1 -48 16 -48 7 0 15 -6 18 -12 6 -18 39
2 52 30 5 12 13 22 17 22 5 0 8 25 8 55 0 30 -4 55 -10 55 -5 0 -10 6 -10 13
0 7 -14 23 -31 37 -17 14 -37 31 -45 38 -7 7 -15 12 -16 12 -2 -1 -20 6 -40
14 -21 9 -44 16 -52 16 -8 0 -16 3 -18 8 -5 11 -76 42 -98 42 -11 0 -20 3 -20
8 0 4 -14 13 -30 20 -17 8 -28 17 -26 21 3 4 -8 5 -25 3 -17 -3 -29 0 -29 7 0
6 -7 11 -15 11 -8 0 -29 9 -47 20 -33 20 -51 23 -75 13z"/>
<path d="M2574 12439 c-3 -6 -15 -9 -25 -6 -10 3 -17 2 -16 -2 3 -11 -56 -70
-65 -65 -5 3 -6 10 -3 15 3 5 -1 6 -9 3 -9 -3 -16 -1 -16 5 0 6 -12 11 -26 11
-14 0 -23 4 -19 10 4 6 -8 10 -29 10 -20 0 -36 -4 -36 -10 0 -5 -8 -10 -18
-10 -22 0 -53 -32 -79 -80 -15 -29 -19 -62 -22 -188 -2 -110 0 -156 9 -167 10
-13 54 -15 269 -15 141 0 262 4 269 9 10 6 12 44 8 172 -6 214 -7 220 -33 246
-59 60 -140 92 -159 62z m86 -131 c18 -29 20 -48 18 -142 l-3 -108 -70 0 -70
0 -3 106 c-2 95 -1 109 20 141 19 28 29 35 56 35 26 0 36 -6 52 -32z m-260 -8
c22 0 33 -50 32 -143 l-1 -99 -70 -1 -71 -2 0 93 c0 54 4 92 10 92 6 0 10 7
10 16 0 28 41 57 68 48 8 -2 18 -4 22 -4z"/>
<path d="M9435 8972 c-62 -33 -123 -99 -131 -141 -4 -17 -10 -33 -13 -36 -14
-8 7 -162 25 -191 44 -67 92 -106 164 -131 176 -62 373 126 330 316 -14 62
-25 82 -66 126 -82 86 -211 110 -309 57z"/>
<path d="M14383 8593 c1572 -2 4142 -2 5710 0 1569 1 283 2 -2858 2 -3141 0
-4424 -1 -2852 -2z"/>
<path d="M11447 8568 c2 -5 -3 -8 -11 -8 -23 0 -29 -18 -12 -35 13 -13 686
-15 5805 -15 5593 0 5791 1 5800 18 7 14 6 22 -7 33 -15 12 -813 14 -5799 14
-3179 0 -5779 -3 -5776 -7z"/>
</g>
</svg>
